<?xml version="1.0" encoding="UTF-8"?>
<svg version="1.1" xmlns="http://www.w3.org/2000/svg" width="211" height="209">
<path d="M0 0 C1.57317555 1.34174972 3.13580518 2.6959654 4.6875 4.0625 C5.50605469 4.73796875 6.32460937 5.4134375 7.16796875 6.109375 C24.26618352 20.63623034 36.96462204 42.67132823 39.6875 65.0625 C39.89519671 69.82347493 39.91542349 74.58307605 39.92773438 79.34790039 C39.93737113 81.59495054 39.96842048 83.84105699 40 86.08789062 C40.09301263 98.53948426 38.42875568 110.22930292 33.4375 121.75 C33.13376465 122.46494629 32.8300293 123.17989258 32.51708984 123.91650391 C20.91539867 150.45260518 -0.53347613 167.06276625 -26.26953125 178.66796875 C-36.91921368 182.66731915 -47.76812316 183.57566308 -59.01611328 183.50854492 C-61.17968071 183.50003077 -63.3405966 183.52894246 -65.50390625 183.56054688 C-78.79625821 183.62872534 -91.31200549 181.0383723 -103.4375 175.4375 C-104.1797583 175.10121582 -104.9220166 174.76493164 -105.68676758 174.41845703 C-113.23443408 170.85776386 -119.7883954 166.22596247 -126.3125 161.0625 C-127.02921875 160.505625 -127.7459375 159.94875 -128.484375 159.375 C-148.10148483 143.40354775 -160.15074431 117.48636164 -163.125 92.6875 C-163.21560415 91.14722949 -163.27686419 89.60502146 -163.3125 88.0625 C-163.35117188 87.07507813 -163.38984375 86.08765625 -163.4296875 85.0703125 C-164.04785572 56.42851853 -152.7512066 30.67096948 -133.3125 10.0625 C-132.75949219 9.44503906 -132.20648438 8.82757812 -131.63671875 8.19140625 C-98.78439879 -27.10649584 -37.18401119 -29.16620878 0 0 Z M-86.3125 31.0625 C-87.13234375 31.47242188 -87.9521875 31.88234375 -88.796875 32.3046875 C-102.00619195 39.56570955 -110.60194994 51.05334635 -115.75 65.0625 C-119.69629781 79.38927683 -118.32345965 94.56420464 -112.3125 108.0625 C-110.25202521 111.66715748 -107.94744333 114.86116699 -105.3125 118.0625 C-104.19875 119.609375 -104.19875 119.609375 -103.0625 121.1875 C-92.78700857 131.93005922 -79.22847195 138.30873058 -64.41015625 139.24609375 C-48.65138117 139.59088033 -34.66922187 134.9900317 -22.6875 124.5625 C-10.77426828 112.88873023 -4.11052535 98.93771422 -3.875 82.1875 C-3.9845516 65.93846913 -10.47380446 52.25989981 -21.609375 40.57421875 C-38.87046818 24.5353706 -65.18863534 20.50056767 -86.3125 31.0625 Z " fill="#CB2D6A" transform="translate(166.3125,22.9375)"/>
<path d="M0 0 C-1.98 0.99 -1.98 0.99 -4 2 C-4.495 1.01 -4.495 1.01 -5 0 C-7.31 0 -9.62 0 -12 0 C-12 -0.33 -12 -0.66 -12 -1 C-13.299375 -1.144375 -14.59875 -1.28875 -15.9375 -1.4375 C-19.875 -1.875 -19.875 -1.875 -21 -3 C-23.80976518 -3.16017166 -26.59773596 -3.25950534 -29.41015625 -3.31640625 C-30.25219101 -3.33718735 -31.09422577 -3.35796844 -31.96177673 -3.37937927 C-34.66193179 -3.44496812 -37.36218717 -3.50380276 -40.0625 -3.5625 C-41.88868241 -3.60567637 -43.71485454 -3.64929036 -45.54101562 -3.69335938 C-50.02723992 -3.80065894 -54.5135655 -3.90189966 -59 -4 C-59 -4.33 -59 -4.66 -59 -5 C-38.74213815 -8.94587918 -19.30718139 -7.32854477 0 0 Z " fill="#D6799F" transform="translate(143,10)"/>
<path d="M0 0 C0.33 0 0.66 0 1 0 C2.14359138 7.09473552 2.22169861 14.11128681 2.24023438 21.28540039 C2.24987113 23.53245054 2.28092048 25.77855699 2.3125 28.02539062 C2.40824503 40.78304254 0.56337549 52.52849806 -4.5625 64.3125 C-4.86607422 65.05177734 -5.16964844 65.79105469 -5.48242188 66.55273438 C-7.72441691 71.86220845 -7.72441691 71.86220845 -10 73 C-9.67 70.36 -9.34 67.72 -9 65 C-8.34 65 -7.68 65 -7 65 C-7.020625 63.88625 -7.04125 62.7725 -7.0625 61.625 C-7 58 -7 58 -6 56 C-5.01 56 -4.02 56 -3 56 C-2.93941406 55.36191406 -2.87882813 54.72382813 -2.81640625 54.06640625 C-2.73261719 53.24011719 -2.64882812 52.41382813 -2.5625 51.5625 C-2.48128906 50.73878906 -2.40007812 49.91507813 -2.31640625 49.06640625 C-2 47 -2 47 -1 46 C-0.08725189 40.26798991 0.13551981 34.70111078 0.09765625 28.90625 C0.0962413 28.07411987 0.09482635 27.24198975 0.09336853 26.38464355 C0.08782167 23.7563907 0.07527945 21.12822662 0.0625 18.5 C0.05747812 16.70573041 0.05291642 14.91145946 0.04882812 13.1171875 C0.03786972 8.74475805 0.02064248 4.37239402 0 0 Z " fill="#E092B3" transform="translate(204,81)"/>
<path d="M0 0 C1.15215805 3.45647416 0.86256171 3.74223721 -0.4375 6.9375 C-3.88212733 17.73172388 -3.37567471 31.40090359 0.44140625 42.00390625 C1 44 1 44 0 47 C-1.5 45.8125 -1.5 45.8125 -3 44 C-3.1875 41.3125 -3.1875 41.3125 -3 39 C-3.66 39 -4.32 39 -5 39 C-5.21003783 26.49790204 -5.39227481 14.3244872 -3 2 C-2.01 2 -1.02 2 0 2 C0 1.34 0 0.68 0 0 Z " fill="#C7537F" transform="translate(52,82)"/>
<path d="M0 0 C1.05078125 1.87109375 1.05078125 1.87109375 2 4 C1.1875 6.0625 1.1875 6.0625 0 8 C-0.33 8.99 -0.66 9.98 -1 11 C-1.99 11.495 -1.99 11.495 -3 12 C-4.11634152 13.65051288 -4.11634152 13.65051288 -5.125 15.5625 C-5.74375 16.696875 -6.3625 17.83125 -7 19 C-7.66 19 -8.32 19 -9 19 C-8.67 19.99 -8.34 20.98 -8 22 C-9.125 23.5 -9.125 23.5 -11 25 C-14.1875 25.1875 -14.1875 25.1875 -17 25 C-16.13375 24.01 -15.2675 23.02 -14.375 22 C-8.46471213 15.06062671 -3.84441843 8.3012221 0 0 Z " fill="#DB82A6" transform="translate(158,125)"/>
<path d="M0 0 C7.3536358 -0.25357365 7.3536358 -0.25357365 10.5390625 0.99609375 C15.60814741 2.46647165 20.50050811 2.25071357 25.75 2.1875 C27.40116821 2.17783203 27.40116821 2.17783203 29.08569336 2.16796875 C38.41108312 2.08132798 47.69931915 1.66518279 57 1 C50.15238359 5.56507761 40.64787814 4.21965063 32.65966797 4.24023438 C30.40163559 4.24988615 28.14453626 4.28094282 25.88671875 4.3125 C16.80030876 4.37684181 8.78432779 3.5471285 0 1 C0 0.67 0 0.34 0 0 Z " fill="#D180A1" transform="translate(75,202)"/>
<path d="M0 0 C0.33 0 0.66 0 1 0 C1.33 8.91 1.66 17.82 2 27 C2.33 27 2.66 27 3 27 C3.33 32.94 3.66 38.88 4 45 C-2.68132887 31.63734226 -1.95675906 14.43109804 0 0 Z " fill="#E9A3C0" transform="translate(4,89)"/>
<path d="M0 0 C4.42212111 2.73719613 7.7073913 5.57206336 11.1875 9.5 C12.02667969 10.4384375 12.86585938 11.376875 13.73046875 12.34375 C15.58218075 14.51098607 17.32925571 16.69252254 19 19 C18.67 19.66 18.34 20.32 18 21 C15.5625 19.75 15.5625 19.75 13 18 C12.835 17.319375 12.67 16.63875 12.5 15.9375 C12.335 15.298125 12.17 14.65875 12 14 C9.50965614 12.70339566 9.50965614 12.70339566 7 12 C7 11.01 7 10.02 7 9 C6.34 9 5.68 9 5 9 C3.7109375 7.5390625 3.7109375 7.5390625 2.375 5.625 C1.92898437 4.99851562 1.48296875 4.37203125 1.0234375 3.7265625 C0 2 0 2 0 0 Z " fill="#D26F98" transform="translate(170,27)"/>
<path d="M0 0 C6.37748744 -0.27984356 11.74109886 0.67960496 17.875 2.375 C18.72835937 2.59671875 19.58171875 2.8184375 20.4609375 3.046875 C26.73434118 4.73434118 26.73434118 4.73434118 29 7 C27.35 7.33 25.7 7.66 24 8 C24 7.34 24 6.68 24 6 C21.69 6 19.38 6 17 6 C17 5.67 17 5.34 17 5 C15.865625 4.896875 14.73125 4.79375 13.5625 4.6875 C8.80602649 4.10889499 4.48101654 2.64926303 0 1 C0 0.67 0 0.34 0 0 Z " fill="#DC83A8" transform="translate(114,4)"/>
<path d="M0 0 C-6.58204428 3.02774037 -12.25826732 4.14438174 -19.5625 4.1875 C-20.65691406 4.20167969 -21.75132813 4.21585938 -22.87890625 4.23046875 C-25.99939486 4.00004469 -28.1866095 3.32548938 -31 2 C-31 1.67 -31 1.34 -31 1 C-29.90042969 1.02320313 -28.80085938 1.04640625 -27.66796875 1.0703125 C-19.93514415 1.18153206 -12.67907041 1.13451668 -5.1015625 -0.66015625 C-3 -1 -3 -1 0 0 Z " fill="#DC88AA" transform="translate(125,160)"/>
<path d="M0 0 C0.86625 0.4640625 0.86625 0.4640625 1.75 0.9375 C3.91059497 2.10381928 3.91059497 2.10381928 6.125 2.25 C6.74375 2.4975 7.3625 2.745 8 3 C9.125 6 9.125 6 10 9 C10.66 9.33 11.32 9.66 12 10 C13.15198932 12.2806472 14.19194587 14.52783474 15.1875 16.875 C15.47302734 17.51308594 15.75855469 18.15117188 16.05273438 18.80859375 C18.12240415 23.63278754 18.12240415 23.63278754 17 27 C16.29037109 25.44152344 16.29037109 25.44152344 15.56640625 23.8515625 C11.7624207 15.74670064 8.02520341 9.13529872 1.6875 2.72265625 C0 1 0 1 0 0 Z " fill="#EBA9C5" transform="translate(142,61)"/>
<path d="M0 0 C6.00852226 -0.20719042 10.52578585 0.26289292 16 3 C16.33 2.34 16.66 1.68 17 1 C19 3 19 3 19 6 C19.66 6 20.32 6 21 6 C21.33 6.99 21.66 7.98 22 9 C19.6174145 8.07770884 17.2632756 7.12212785 14.9453125 6.046875 C10.00430125 3.75588708 5.32332911 2.16145362 0 1 C0 0.67 0 0.34 0 0 Z " fill="#DA7EA3" transform="translate(116,49)"/>
<path d="M0 0 C0.66 0.33 1.32 0.66 2 1 C1.57847656 1.48210938 1.15695313 1.96421875 0.72265625 2.4609375 C0.17480469 3.09257812 -0.37304688 3.72421875 -0.9375 4.375 C-1.48277344 5.00148438 -2.02804688 5.62796875 -2.58984375 6.2734375 C-4.06958624 7.95632334 -4.06958624 7.95632334 -5 10 C-5.99 10.33 -6.98 10.66 -8 11 C-8.6496875 12.423125 -8.6496875 12.423125 -9.3125 13.875 C-11.34013811 17.62988539 -13.1107724 18.44430896 -17 20 C-13.38474778 12.06750484 -6.14715425 6.00345454 0 0 Z " fill="#DC85A9" transform="translate(40,26)"/>
<path d="M0 0 C3.87249706 1.41779947 7.20748064 3.22984788 10.6875 5.4375 C12.11642578 6.33275391 12.11642578 6.33275391 13.57421875 7.24609375 C16 9 16 9 18 12 C16.55989519 11.74337755 15.1229313 11.46909179 13.6875 11.1875 C12.48673828 10.96126953 12.48673828 10.96126953 11.26171875 10.73046875 C8.73679476 9.91499244 7.61930266 9.08046329 6 7 C6 6.34 6 5.68 6 5 C5.071875 4.7834375 5.071875 4.7834375 4.125 4.5625 C2 4 2 4 0 3 C0 2.01 0 1.02 0 0 Z " fill="#D26892" transform="translate(152,15)"/>
<path d="M0 0 C1.14388058 3.43164174 0.88191099 3.74909736 -0.375 6.9375 C-3.10399975 15.27403348 -2.77093928 24.30581673 -3 33 C-3.33 33 -3.66 33 -4 33 C-4.02952761 29.70835283 -4.04697292 26.41674062 -4.0625 23.125 C-4.07087891 22.2071875 -4.07925781 21.289375 -4.08789062 20.34375 C-4.10964173 14.1664353 -3.73930108 8.13278165 -3 2 C-2.01 2 -1.02 2 0 2 C0 1.34 0 0.68 0 0 Z " fill="#F9CAE3" transform="translate(52,82)"/>
<path d="M0 0 C7.42857143 -0.14285714 7.42857143 -0.14285714 11 1 C11 1.66 11 2.32 11 3 C12.32 3 13.64 3 15 3 C15 3.99 15 4.98 15 6 C15.66 6.33 16.32 6.66 17 7 C10.77012202 6.49487476 5.54525767 3.67395877 0 1 C0 0.67 0 0.34 0 0 Z " fill="#D56893" transform="translate(58,195)"/>
<path d="M0 0 C1.65 0.33 3.3 0.66 5 1 C3.66511872 4.59391114 2.03977277 7.75490696 0 11 C-1.125 9.4375 -1.125 9.4375 -2 7 C-1.125 3.25 -1.125 3.25 0 0 Z " fill="#D25D8A" transform="translate(189,153)"/>
<path d="M0 0 C3.26533024 3.17462662 6.16918628 6.43865371 9 10 C10.31494512 11.35147138 11.64264858 12.69112542 13 14 C7.51961001 12.84068673 5.18529813 11.60098619 2 7 C1.34 6.67 0.68 6.34 0 6 C0 4.02 0 2.04 0 0 Z " fill="#D87AA1" transform="translate(57,136)"/>
<path d="M0 0 C-5.445 4.455 -5.445 4.455 -11 9 C-11.66 8.67 -12.32 8.34 -13 8 C-12.34 7.34 -11.68 6.68 -11 6 C-10.35232207 3.42938689 -10.35232207 3.42938689 -10 1 C-8.71073008 0.63720544 -7.41846728 0.28503302 -6.125 -0.0625 C-5.40570313 -0.25972656 -4.68640625 -0.45695313 -3.9453125 -0.66015625 C-2 -1 -2 -1 0 0 Z " fill="#D6739B" transform="translate(174,181)"/>
<path d="M0 0 C0.66 0.33 1.32 0.66 2 1 C0.83030495 3.88524779 -0.24075705 5.61894057 -3.0625 7.03515625 C-7.10668569 8.46525481 -9.82169411 9.38959604 -14 8 C-13.07316406 7.50628906 -12.14632812 7.01257813 -11.19140625 6.50390625 C-9.98172045 5.85686501 -8.77208778 5.20972446 -7.5625 4.5625 C-6.95083984 4.23701172 -6.33917969 3.91152344 -5.70898438 3.57617188 C-2.66283794 2.06284858 -2.66283794 2.06284858 0 0 Z " fill="#DC84A7" transform="translate(139,150)"/>
<path d="M0 0 C0.99 0.33 1.98 0.66 3 1 C1.73130765 6.92056432 -0.13965435 11.66068812 -3 17 C-4.43088528 14.13822943 -3.59991697 12.06624227 -3 9 C-2.34 9 -1.68 9 -1 9 C-1.020625 7.88625 -1.04125 6.7725 -1.0625 5.625 C-1 2 -1 2 0 0 Z " fill="#C9507F" transform="translate(198,137)"/>
<path d="M0 0 C0.33 0.66 0.66 1.32 1 2 C0.67 2.99 0.34 3.98 0 5 C-0.66 5 -1.32 5 -2 5 C-2 6.65 -2 8.3 -2 10 C-2.99 10 -3.98 10 -5 10 C-5.33 11.65 -5.66 13.3 -6 15 C-6.66 15 -7.32 15 -8 15 C-6.51194289 9.19657726 -3.40902445 4.82409121 0 0 Z " fill="#DE8AAD" transform="translate(22,46)"/>
<path d="M0 0 C0.66 0.99 1.32 1.98 2 3 C0.875 4.5 0.875 4.5 -1 6 C-4.1875 6.1875 -4.1875 6.1875 -7 6 C-3.375 1.125 -3.375 1.125 0 0 Z " fill="#CF5C89" transform="translate(148,144)"/>
<path d="M0 0 C3.19199167 2.41556126 5.74716687 4.68003538 8 8 C7.67 8.66 7.34 9.32 7 10 C6.195625 9.505 5.39125 9.01 4.5625 8.5 C2.35103815 6.91580347 2.35103815 6.91580347 1 7 C0.67 4.69 0.34 2.38 0 0 Z " fill="#D77BA1" transform="translate(181,38)"/>
<path d="M0 0 C0.66 0.33 1.32 0.66 2 1 C0.12050295 4.57104439 -1.17053157 6.54744301 -5 8 C-5.33 7.01 -5.66 6.02 -6 5 C-4.02 3.35 -2.04 1.7 0 0 Z " fill="#D46994" transform="translate(48,20)"/>
<path d="M0 0 C6.33393082 -0.34548714 11.10261508 0.70657253 17 3 C13.12813552 4.44715727 10.1767672 3.5441918 6.25 2.5625 C5.07953125 2.27503906 3.9090625 1.98757812 2.703125 1.69140625 C1.81109375 1.46324219 0.9190625 1.23507813 0 1 C0 0.67 0 0.34 0 0 Z " fill="#E79DBD" transform="translate(75,202)"/>
<path d="M0 0 C1.69433918 3.0469629 2.49467112 5.82821466 3.125 9.25 C3.29257812 10.14203125 3.46015625 11.0340625 3.6328125 11.953125 C3.75398438 12.62859375 3.87515625 13.3040625 4 14 C2.015625 12.85546875 2.015625 12.85546875 0 11 C-0.390625 8.30078125 -0.390625 8.30078125 -0.25 5.3125 C-0.21390625 4.31863281 -0.1778125 3.32476562 -0.140625 2.30078125 C-0.09421875 1.54152344 -0.0478125 0.78226562 0 0 Z " fill="#E199BA" transform="translate(49,115)"/>
<path d="M0 0 C2.64 0 5.28 0 8 0 C5.97803833 2.02196167 4.74135514 2.67551358 2.125 3.6875 C1.10792969 4.09548828 1.10792969 4.09548828 0.0703125 4.51171875 C-2.31107782 5.07336741 -3.70430191 4.76694846 -6 4 C-4.02 3.34 -2.04 2.68 0 2 C0 1.34 0 0.68 0 0 Z " fill="#E496B7" transform="translate(138,198)"/>
<path d="M0 0 C1.125 1.75 1.125 1.75 2 4 C1.1875 6.0625 1.1875 6.0625 0 8 C-0.33 8.99 -0.66 9.98 -1 11 C-1.66 11 -2.32 11 -3 11 C-2.69078116 9.54096742 -2.37751201 8.08279278 -2.0625 6.625 C-1.88847656 5.81289062 -1.71445313 5.00078125 -1.53515625 4.1640625 C-1 2 -1 2 0 0 Z " fill="#D66893" transform="translate(158,125)"/>
<path d="M0 0 C0.33 0 0.66 0 1 0 C1.22893297 3.03336186 1.36475845 5.97465051 1 9 C-1 11.0625 -1 11.0625 -3 12 C-2.40075776 7.80530429 -1.42500059 3.99000166 0 0 Z " fill="#DB84A8" transform="translate(10,68)"/>
<path d="M0 0 C2.97 0.99 5.94 1.98 9 3 C9 4.32 9 5.64 9 7 C5.18315774 5.44499019 2.80804268 2.96404505 0 0 Z " fill="#DA7CA3" transform="translate(38,181)"/>
<path d="M0 0 C2.64 0 5.28 0 8 0 C7.42507812 0.28488281 6.85015625 0.56976563 6.2578125 0.86328125 C4.80655238 1.59393297 3.362969 2.34015051 1.9296875 3.10546875 C1.25164062 3.46253906 0.57359375 3.81960937 -0.125 4.1875 C-0.80820313 4.55230469 -1.49140625 4.91710938 -2.1953125 5.29296875 C-3.08863281 5.64294922 -3.08863281 5.64294922 -4 6 C-4.66 5.67 -5.32 5.34 -6 5 C-5.195625 4.54625 -4.39125 4.0925 -3.5625 3.625 C-0.91143428 2.25274335 -0.91143428 2.25274335 0 0 Z " fill="#E99FBE" transform="translate(82,50)"/>
<path d="M0 0 C3.59391114 1.33488128 6.75490696 2.96022723 10 5 C8 6 8 6 5 5.125 C2 4 2 4 0 3 C0 2.01 0 1.02 0 0 Z " fill="#DA84A7" transform="translate(152,15)"/>
<path d="M0 0 C1.2065625 0.0309375 1.2065625 0.0309375 2.4375 0.0625 C-0.3125 4.9375 -0.3125 4.9375 -2.5625 6.0625 C-2.94468767 4.40635343 -3.27645102 2.73792976 -3.5625 1.0625 C-2.5625 0.0625 -2.5625 0.0625 0 0 Z " fill="#D26893" transform="translate(185.5625,163.9375)"/>
<path d="M0 0 C0.66 0 1.32 0 2 0 C4.22923777 4.32734391 3.92470553 7.28400182 3 12 C2.67 12 2.34 12 2 12 C1.34 8.04 0.68 4.08 0 0 Z " fill="#CE668E" transform="translate(159,84)"/>
<path d="M0 0 C1.25541557 3.76624671 0.37061958 5.37188934 -1 9 C-1.66 9 -2.32 9 -3 9 C-3 6.69 -3 4.38 -3 2 C-2.01 2 -1.02 2 0 2 C0 1.34 0 0.68 0 0 Z " fill="#DA8CAD" transform="translate(52,82)"/>
<path d="M0 0 C2.31 0 4.62 0 7 0 C7.66 1.32 8.32 2.64 9 4 C6.03 3.01 3.06 2.02 0 1 C0 0.67 0 0.34 0 0 Z " fill="#DA7CA2" transform="translate(58,195)"/>
<path d="M0 0 C0 3.69418201 -1.28179295 5.77836178 -3 9 C-3.33 9 -3.66 9 -4 9 C-4 6.69 -4 4.38 -4 2 C-2.68 1.34 -1.36 0.68 0 0 Z " fill="#E08AAF" transform="translate(57,73)"/>
<path d="M0 0 C0.33 0.66 0.66 1.32 1 2 C0.22265625 3.9453125 0.22265625 3.9453125 -0.9375 6.125 C-1.31777344 6.84945312 -1.69804687 7.57390625 -2.08984375 8.3203125 C-2.39019531 8.87460938 -2.69054687 9.42890625 -3 10 C-4.46604374 7.06791253 -3.77925574 5.11702298 -3 2 C-2.01 1.34 -1.02 0.68 0 0 Z " fill="#DD8CAD" transform="translate(198,144)"/>
<path d="M0 0 C0.86625 0.4640625 0.86625 0.4640625 1.75 0.9375 C3.84294184 1.92583364 5.74535275 2.5168613 8 3 C8 3.99 8 4.98 8 6 C4.74456771 5.65120368 3.98126893 4.97866739 1.75 2.4375 C1.1725 1.633125 0.595 0.82875 0 0 Z " fill="#D8749D" transform="translate(142,61)"/>
<path d="M0 0 C-2.64 1.98 -5.28 3.96 -8 6 C-7.67 4.02 -7.34 2.04 -7 0 C-2.25 -1.125 -2.25 -1.125 0 0 Z " fill="#E496B8" transform="translate(73,59)"/>
<path d="M0 0 C3.68754757 0.49831724 5.60490662 1.10067643 8 4 C7.01 4.495 7.01 4.495 6 5 C3.98079663 3.69593116 1.98075027 2.36176581 0 1 C0 0.67 0 0.34 0 0 Z " fill="#E090B2" transform="translate(50,190)"/>
<path d="M0 0 C2.475 0.495 2.475 0.495 5 1 C5.33 2.98 5.66 4.96 6 7 C3.95880212 5.38405168 1.95927063 3.7143618 0 2 C0 1.34 0 0.68 0 0 Z " fill="#DE83A8" transform="translate(25,167)"/>
</svg>
